<svg xmlns="http://www.w3.org/2000/svg" viewBox="0 0 512 512" role="img" aria-labelledby="title desc">
  <title id="title">Decision Memory logo</title>
  <desc id="desc">A decision node connected to a versioned architecture record.</desc>
  <defs>
    <linearGradient id="bg" x1="72" y1="40" x2="440" y2="472" gradientUnits="userSpaceOnUse">
      <stop offset="0" stop-color="#0F172A"/>
      <stop offset="1" stop-color="#111827"/>
    </linearGradient>
    <linearGradient id="accent" x1="148" y1="116" x2="364" y2="396" gradientUnits="userSpaceOnUse">
      <stop offset="0" stop-color="#38BDF8"/>
      <stop offset="0.55" stop-color="#2563EB"/>
      <stop offset="1" stop-color="#22C55E"/>
    </linearGradient>
    <filter id="shadow" x="-20%" y="-20%" width="140%" height="140%" color-interpolation-filters="sRGB">
      <feDropShadow dx="0" dy="18" stdDeviation="18" flood-color="#020617" flood-opacity="0.35"/>
    </filter>
  </defs>
  <rect width="512" height="512" rx="104" fill="url(#bg)"/>
  <g filter="url(#shadow)">
    <path d="M184 116h132l64 64v216H184z" fill="#F8FAFC"/>
    <path d="M316 116v64h64" fill="#DBEAFE"/>
    <path d="M214 230h132M214 272h96M214 314h118" stroke="#64748B" stroke-width="18" stroke-linecap="round"/>
  </g>
  <path d="M126 178c0-32 26-58 58-58s58 26 58 58-26 58-58 58-58-26-58-58z" fill="url(#accent)"/>
  <path d="M164 176l17 17 39-45" fill="none" stroke="#F8FAFC" stroke-width="18" stroke-linecap="round" stroke-linejoin="round"/>
  <path d="M184 236v52c0 28 22 50 50 50h38" fill="none" stroke="url(#accent)" stroke-width="18" stroke-linecap="round"/>
  <circle cx="308" cy="338" r="26" fill="#22C55E"/>
  <path d="M307 326v24M295 338h24" stroke="#052E16" stroke-width="10" stroke-linecap="round"/>
</svg>
